# xmcd
#
# Track frame offsets: 
#        182
#        25560
#        56560
#        74780
#        116905
#        132985
#        151432
#        183327
#        221830
#        234460
#        252560
#        286572
#        307562
#
# Disc length: 4313 seconds
#
# Revision: 3
# Processed by: cddbd v1.5.2PL0 Copyright (c) Steve Scherf et al.
# Submitted via: ExactAudioCopyFreeDBPlugin 1.0
#
DISCID=b910d70d
DTITLE=Paul Badura-Skoda - Beethoven - Les sonates pour le pianoforte 
DTITLE=sur instruments d'époque - 3
DYEAR=1900
DGENRE=Classical
TTITLE0=Sonata in C minor, Op. 10 No. 1 - I. Allegro molto e con brio
TTITLE1=Sonata in C minor, Op. 10 No. 1 - II. Adagio molto
TTITLE2=Sonata in C minor, Op. 10 No. 1 - III. Finale. Prestissimo
TTITLE3=Sonata in F major, Op. 10 No. 2 - I. Allegro
TTITLE4=Sonata in F major, Op. 10 No. 2 - II. Allegretto
TTITLE5=Sonata in F major, Op. 10 No. 2 - III. Presto
TTITLE6=Sonata in D major, Op. 10 No. 3 - I. Presto
TTITLE7=Sonata in D major, Op. 10 No. 3 - II. Largo e mesto
TTITLE8=Sonata in D major, Op. 10 No. 3 - III. Menuetto. Allegro
TTITLE9=Sonata in D major, Op. 10 No. 3 - IV. Rondo. Allegro
TTITLE10=Sonata in G major, Op. 14 No. 2 - I. Allegro
TTITLE11=Sonata in G major, Op. 14 No. 2 - II. Andante
TTITLE12=Sonata in G major, Op. 14 No. 2 - III. Scherzo. Allegro assai
EXTD=Paul Badur-Skoda\nPianoforte Johann Schantz, Vienne ca. 1790
EXTT0=
EXTT1=
EXTT2=
EXTT3=
EXTT4=
EXTT5=
EXTT6=
EXTT7=
EXTT8=
EXTT9=
EXTT10=
EXTT11=
EXTT12=
PLAYORDER=
